<?xml version="1.0" encoding="UTF-8"?>
<svg viewBox="0 0 44.03 37" xmlns="http://www.w3.org/2000/svg">
<g data-name="Layer 1">
<path class="cls-1" fill="#5B4E4E" d="M0,8.35A4,4,0,0,1,1.3,6.09a3.51,3.51,0,0,1,5.06.65,3.48,3.48,0,0,1-.76,4.89l-.32.24a14.32,14.32,0,0,0,4.83,6.51A4.94,4.94,0,0,0,17,17.49,13.11,13.11,0,0,0,19.6,13c.5-1.37.87-2.79,1.29-4.18a1.5,1.5,0,0,0,0-.2A4.47,4.47,0,0,1,18,6.13a4.21,4.21,0,0,1-.23-2.82A4.46,4.46,0,0,1,22.15,0a4.49,4.49,0,0,1,4.17,3.42c.49,2.27-.56,4-3.2,5.27.17.68.34,1.37.54,2.06a17.74,17.74,0,0,0,2.9,6.13A6,6,0,0,0,30,19.27a5,5,0,0,0,4.1-1,13.21,13.21,0,0,0,4-4.85c.23-.43.41-.88.63-1.31.11-.22.06-.32-.12-.46A3.31,3.31,0,0,1,37.1,8.12a3.38,3.38,0,0,1,2.49-2.7A3.5,3.5,0,0,1,42,12a1.71,1.71,0,0,1-.56.2c-.49,0-.58.31-.66.71q-1.59,8.35-3.2,16.71c0,.11-.05.21-.09.35H7c-.32,0-.46-.07-.52-.42Q4.82,21.07,3.2,12.61a.42.42,0,0,0-.37-.39A3.47,3.47,0,0,1,.07,9.48,1.07,1.07,0,0,0,0,9.29Z"/>
<path fill="#5B4E4E" class="cls-1" d="M22.07,31.72H35.84a2.69,2.69,0,0,1,2.56,1.33,2.74,2.74,0,0,1,.36,1.25A2.63,2.63,0,0,1,36.4,37a4.52,4.52,0,0,1-.52,0H8.18A2.66,2.66,0,0,1,5.4,35.08a2.62,2.62,0,0,1-.07-1.15,2.73,2.73,0,0,1,.43-1.06,2.54,2.54,0,0,1,.85-.78,2.49,2.49,0,0,1,1.09-.34q.34,0,.69,0Z"/>
</g>
</svg>
